 <svg width="20" height="20" viewBox="0 0 20 20" fill="none" xmlns="http://www.w3.org/2000/svg">
           
            <!-- <symbol id="svg" > -->
  
            <path 
                d="M15 0H5C2.2 0 0 2.2 0 5V15C0 17.8 2.2 20 5 20H15C17.8 20 20 17.8 20 15V5C20 2.2 17.8 0 15 0ZM15 18H5C3.3 18 2 16.7 2 15V5C2 4.5 2.1 4.1 2.3 3.7L16.3 17.7C15.9 17.9 15.5 18 15 18ZM18 15C18 15.5 17.9 15.9 17.7 16.3L3.7 2.3C4.1 2.1 4.5 2 5 2H15C16.7 2 18 3.3 18 5V15Z"
               />
            <path 
                d="M15 0H5C2.2 0 0 2.2 0 5V15C0 17.8 2.2 20 5 20H15C17.8 20 20 17.8 20 15V5C20 2.2 17.8 0 15 0ZM15 18H5C3.3 18 2 16.7 2 15V5C2 4.5 2.1 4.1 2.3 3.7L16.3 17.7C15.9 17.9 15.5 18 15 18ZM18 15C18 15.5 17.9 15.9 17.7 16.3L3.7 2.3C4.1 2.1 4.5 2 5 2H15C16.7 2 18 3.3 18 5V15Z"
                 />

            <!-- </symbol> -->
    
        </svg>